Coordinates
version=1
nRows=11
nColumns=42
inDegrees=yes

Units are S.I. units (second, meters, Newtons, ...)
If the header above contains a line with 'inDegrees', this indicates whether rotational values are in degrees (yes) or radians (no).

endheader
time	pelvis_tilt	pelvis_list	pelvis_rotation	pelvis_tx	pelvis_ty	pelvis_tz	hip_flexion_r	hip_adduction_r	hip_rotation_r	knee_angle_r	knee_adduction_r	knee_angle_r_beta	ankle_angle_r	subtalar_angle_r	mtp_angle_r	hip_flexion_l	hip_adduction_l	hip_rotation_l	knee_angle_l	knee_adduction_l	knee_angle_l_beta	ankle_angle_l	subtalar_angle_l	mtp_angle_l	lumbar_extension	lumbar_bending	lumbar_rotation	arm_flex_r	arm_add_r	arm_rot_r	elbow_flex_r	pro_sup_r	wrist_flex_r	wrist_dev_r	arm_flex_l	arm_add_l	arm_rot_l	elbow_flex_l	pro_sup_l	wrist_flex_l	wrist_dev_l
      0.00000000	      8.65159966	      5.33194352	     -4.14051995	     -1.94090055	      0.96753863	      0.23921036	     -4.80538847	    -11.62274392	     -8.09971751	     61.67079534	     -2.40876004	      1.07635843	      5.08669196	     -9.40165350	     -9.31595293	      3.42782921	      4.81867301	    -12.58597206	     16.34893809	      2.15544416	      0.28534280	     11.80680227	     14.42743231	     -9.31595293	    -20.39193472	     -5.35983169	     -1.13019344	     -5.36503449	    -12.38262404	     12.77839982	     34.42363535	     90.00000001	      0.00000000	      0.00000000	     -7.06047537	    -12.46815817	      1.58748681	     37.06213155	     90.00000001	      0.00000000	      0.00000000
      0.01000000	      8.61411461	      5.13572823	     -3.99789154	     -1.93484097	      0.96864921	      0.23852396	     -3.95955708	    -11.34382354	     -8.12520047	     61.81527464	     -2.40392459	      1.07888007	      5.52726286	     -9.30311664	     -9.29722150	      2.88070992	      4.73475958	    -12.60733832	     16.00309629	      2.06711032	      0.27930672	     11.91677104	     14.54888018	     -9.29722150	    -20.40350353	     -5.02139275	     -1.31764931	     -5.45004919	    -12.37134775	     12.77524680	     34.38762496	     90.00000001	      0.00000000	      0.00000000	     -6.69426037	    -12.57749262	      1.58509966	     37.20675028	     90.00000001	      0.00000000	      0.00000000
      0.02000000	      8.54576440	      4.85597132	     -3.83868924	     -1.92672175	      0.97004561	      0.23780122	     -2.83589021	    -10.91574417	     -8.17103201	     61.89218977	     -2.43500099	      1.08022249	      6.30158079	     -9.13010589	     -9.27528555	      2.09290616	      4.57932468	    -12.45093385	     15.38793030	      2.04281177	      0.26857005	     12.13286961	     14.85018695	     -9.27528555	    -20.36637013	     -4.59205345	     -1.46642816	     -5.57694199	    -12.36690178	     12.76052576	     34.27257605	     90.00000001	      0.00000000	      0.00000000	     -6.17357380	    -12.77466387	      1.60919899	     37.38714618	     90.00000001	      0.00000000	      0.00000000
      0.03000000	      8.75401075	      4.50239119	     -3.60116370	     -1.91636294	      0.97212599	      0.23708207	     -1.96925981	    -10.38208314	     -8.47452860	     61.59252744	     -2.56196396	      1.07499240	      7.59391166	     -7.95370758	     -9.19710871	      0.62494598	      4.35679032	    -11.80057299	     14.33604373	      2.20653246	      0.25021116	     12.42836279	     15.17045688	     -9.19710871	    -20.60064434	     -4.07969392	     -1.65422134	     -5.79893925	    -12.26908939	     12.54836085	     34.15507134	     90.00000001	      0.00000000	      0.00000000	     -5.51652652	    -13.09113482	      1.84428047	     37.63428380	     90.00000001	      0.00000000	      0.00000000
      0.04000000	      8.61662802	      4.15246648	     -3.37551152	     -1.90486163	      0.97374491	      0.23614695	     -0.39196252	     -9.84006758	     -8.62737462	     61.39274061	     -2.57097780	      1.07150546	      8.60932238	     -7.58206929	     -9.16050839	     -0.45176622	      4.12632020	    -11.48657668	     13.44673383	      2.26443462	      0.23468978	     12.66254482	     15.48000796	     -9.16050839	    -20.50083333	     -3.52966428	     -1.86535873	     -6.01636768	    -12.21735366	     12.48596280	     34.04233629	     90.00000001	      0.00000000	      0.00000000	     -4.82539813	    -13.38033205	      1.87700426	     37.99562311	     90.00000001	      0.00000000	      0.00000000
      0.05000000	      8.76770257	      3.76753658	     -3.06832955	     -1.89170153	      0.97583281	      0.23510930	      0.80945587	     -9.26555884	     -9.14501965	     60.71486697	     -2.71275026	      1.05967433	      9.87553343	     -6.41252143	     -9.05743909	     -2.14579365	      3.92203346	    -10.75830589	     12.15150967	      2.33640740	      0.21208385	     12.72553928	     15.31071138	     -9.05743909	    -20.65872116	     -2.93071197	     -2.14733817	     -6.32798129	    -12.12118501	     12.18229030	     33.98330384	     90.00000001	      0.00000000	      0.00000000	     -4.10575553	    -13.74346811	      2.01686505	     38.49547079	     90.00000001	      0.00000000	      0.00000000
      0.06000000	      8.69037775	      3.35503951	     -2.76014167	     -1.87800243	      0.97744928	      0.23406652	      2.36142339	     -8.64118128	     -9.26597161	     59.89443508	     -2.46358949	      1.04535510	     10.94778188	     -5.87039208	     -8.98948902	     -3.56582134	      3.62979811	    -10.22926303	     10.98180010	      2.39761977	      0.19166857	     12.96549810	     15.47889968	     -8.98948902	    -20.59137285	     -2.29514689	     -2.42257736	     -6.63239892	    -12.04645714	     12.00724284	     33.89220848	     90.00000001	      0.00000000	      0.00000000	     -3.34375116	    -14.08386818	      2.00268726	     38.99505075	     90.00000001	      0.00000000	      0.00000000
      0.07000000	      8.37053160	      3.01392678	     -2.52323906	     -1.86398838	      0.97842599	      0.23313095	      4.26500673	     -8.08850323	     -9.35745353	     58.90072934	     -2.19749507	      1.02801166	     11.87166304	     -5.70667366	     -8.96184166	     -4.66382474	      3.38010003	    -10.02628780	      9.95352982	      2.41650679	      0.17372187	     13.18682408	     15.90882709	     -8.96184166	    -20.26017383	     -1.75720869	     -2.63199976	     -6.96846651	    -11.97291039	     11.92250829	     33.83534928	     90.00000001	      0.00000000	      0.00000000	     -2.61313507	    -14.45158924	      1.92617783	     39.62974445	     90.00000001	      0.00000000	      0.00000000
      0.08000000	      8.12124123	      2.67851814	     -2.26259217	     -1.84961363	      0.97924978	      0.23209751	      5.97660777	     -7.55144724	     -9.41201561	     57.50479945	     -1.80764836	      1.00364809	     12.72306740	     -5.51209332	     -8.93657151	     -5.88965530	      3.15614361	     -9.85096930	      8.84891301	      2.38761044	      0.15444267	     13.44789095	     16.38632257	     -8.93657151	    -19.99276827	     -1.20945078	     -2.89567010	     -7.30268156	    -11.89659113	     11.76861003	     33.80000997	     90.00000001	      0.00000000	      0.00000000	     -1.91873990	    -14.79394614	      1.83943169	     40.31334184	     90.00000001	      0.00000000	      0.00000000
      0.09000000	      8.02170849	      2.34094042	     -2.01607106	     -1.83494010	      0.97993475	      0.23129235	      7.35907219	     -7.00771404	     -9.44694385	     55.67743865	     -1.31324983	      0.97175462	     13.48839563	     -5.34706494	     -8.90631797	     -7.37286906	      2.86812085	     -9.58404984	      7.62295551	      2.47907269	      0.13304567	     13.70041039	     16.96569380	     -8.90631797	    -19.86181664	     -0.70022076	     -3.12745939	     -7.67360428	    -11.79792999	     11.52117341	     33.78424469	     90.00000001	      0.00000000	      0.00000000	     -1.24396108	    -15.15484842	      1.71391483	     41.08949949	     90.00000001	      0.00000000	      0.00000000
      0.10000000	      7.68106075	      2.39082808	     -1.76615115	     -1.82055292	      0.97980767	      0.23022001	      9.03111892	     -6.98449745	     -9.66183674	     53.72066941	     -0.90881757	      0.93760256	     13.70291731	     -5.28656251	     -8.89162880	     -8.22619855	      3.00789017	     -9.97527327	      7.09544550	      2.41915724	      0.12383889	     13.89080884	     17.02757156	     -8.89162880	    -19.45571219	     -0.58635472	     -3.46689204	     -8.07880696	    -11.71438012	     11.46026854	     33.81180937	     90.00000001	      0.00000000	      0.00000000	     -0.55358418	    -15.53540994	      1.60921627	     41.69474205	     90.00000001	      0.00000000	      0.00000000
